<svg xmlns="http://www.w3.org/2000/svg" xmlns:xlink="http://www.w3.org/1999/xlink" viewBox="0 0 2348.84 1530.45"><defs><style>.cls-1{fill:none;}.cls-2{clip-path:url(#clip-path);}.cls-3{fill:url(#Безымянный_градиент_23);}.cls-4{fill:url(#Безымянный_градиент_78);}.cls-5{fill:url(#Безымянный_градиент_78-2);}.cls-6{fill:url(#Безымянный_градиент_78-3);}.cls-7{fill:url(#Безымянный_градиент_78-4);}.cls-8{fill:url(#Безымянный_градиент_78-5);}.cls-9{fill:url(#Безымянный_градиент_78-6);}.cls-10{fill:url(#Безымянный_градиент_78-7);}.cls-11{fill:url(#Безымянный_градиент_78-8);}.cls-12{fill:url(#Безымянный_градиент_78-9);}.cls-13{fill:url(#Безымянный_градиент_78-10);}.cls-14{fill:url(#Безымянный_градиент_78-11);}.cls-15{fill:url(#Безымянный_градиент_78-12);}.cls-16{fill:url(#Безымянный_градиент_78-13);}.cls-17{fill:url(#Безымянный_градиент_78-14);}.cls-18{fill:url(#Безымянный_градиент_78-15);}.cls-19{fill:url(#Безымянный_градиент_78-16);}</style><clipPath id="clip-path" transform="translate(428.51 155.93)"><rect class="cls-1" x="-320.33" y="-155.93" width="2240.67" height="1260.37"/></clipPath><linearGradient id="Безымянный_градиент_23" x1="585.71" y1="196.98" x2="2978.5" y2="1809.59" gradientUnits="userSpaceOnUse"><stop offset="0.1" stop-color="#706cb1"/><stop offset="0.33" stop-color="#cf72ae"/><stop offset="0.44" stop-color="#f37c80"/><stop offset="0.8" stop-color="#fbd242"/></linearGradient><linearGradient id="Безымянный_градиент_78" x1="1081.92" y1="-48.64" x2="1408.69" y2="1407.8" gradientUnits="userSpaceOnUse"><stop offset="0.1" stop-color="#706cb1"/><stop offset="0.33" stop-color="#cf72ae"/><stop offset="0.44" stop-color="#f37c80"/><stop offset="0.72" stop-color="#fbd242"/></linearGradient><linearGradient id="Безымянный_градиент_78-2" x1="492.73" y1="444.41" x2="-153.33" y2="1272.58" gradientTransform="translate(209.62 310.81) rotate(45)" xlink:href="#Безымянный_градиент_78"/><linearGradient id="Безымянный_градиент_78-3" x1="398.2" y1="242.77" x2="-247.85" y2="1070.93" gradientTransform="translate(391.82 1378) rotate(-135)" xlink:href="#Безымянный_градиент_78"/><linearGradient id="Безымянный_градиент_78-4" x1="742.77" y1="14.48" x2="96.71" y2="842.64" gradientTransform="translate(209.62 310.81) rotate(45)" xlink:href="#Безымянный_градиент_78"/><linearGradient id="Безымянный_градиент_78-5" x1="868.2" y1="304.95" x2="222.14" y2="1133.12" gradientTransform="translate(209.62 310.81) rotate(45)" xlink:href="#Безымянный_градиент_78"/><linearGradient id="Безымянный_градиент_78-6" x1="442.83" y1="282.47" x2="-386.26" y2="1345.26" gradientTransform="translate(209.62 310.81) rotate(45)" xlink:href="#Безымянный_градиент_78"/><linearGradient id="Безымянный_градиент_78-7" x1="-313.4" y1="405.88" x2="-716.5" y2="922.59" gradientTransform="translate(786.78 752.43) rotate(45)" xlink:href="#Безымянный_градиент_78"/><linearGradient id="Безымянный_градиент_78-8" x1="-852.49" y1="910.71" x2="-1255.59" y2="1427.42" gradientTransform="translate(-1642.78 903.57) rotate(-135)" xlink:href="#Безымянный_градиент_78"/><linearGradient id="Безымянный_градиент_78-9" x1="-187.97" y1="221.03" x2="-591.07" y2="737.74" gradientTransform="translate(786.78 752.43) rotate(45)" xlink:href="#Безымянный_градиент_78"/><linearGradient id="Безымянный_градиент_78-10" x1="-185.5" y1="593.2" x2="-588.59" y2="1109.91" gradientTransform="translate(786.78 752.43) rotate(45)" xlink:href="#Безымянный_градиент_78"/><linearGradient id="Безымянный_градиент_78-11" x1="-402.83" y1="656.88" x2="-805.93" y2="1173.59" gradientTransform="translate(-372.78 1143.57) rotate(-135)" xlink:href="#Безымянный_градиент_78"/><linearGradient id="Безымянный_градиент_78-12" x1="-553.85" y1="560.33" x2="-956.94" y2="1077.04" gradientTransform="translate(-372.78 1143.57) rotate(-135)" xlink:href="#Безымянный_градиент_78"/><linearGradient id="Безымянный_градиент_78-13" x1="-293.91" y1="429.12" x2="-697" y2="945.84" gradientTransform="translate(-372.78 1143.57) rotate(-135)" xlink:href="#Безымянный_градиент_78"/><linearGradient id="Безымянный_градиент_78-14" x1="-313.4" y1="55.99" x2="-716.5" y2="572.7" gradientTransform="translate(786.78 752.43) rotate(45)" xlink:href="#Безымянный_градиент_78"/><linearGradient id="Безымянный_градиент_78-15" x1="-243.57" y1="441.47" x2="-646.66" y2="958.19" gradientTransform="translate(137.22 1199.57) rotate(-135)" xlink:href="#Безымянный_градиент_78"/><linearGradient id="Безымянный_градиент_78-16" x1="-806.08" y1="936.84" x2="-1209.17" y2="1453.55" gradientTransform="translate(-1658.78 1085.57) rotate(-135)" xlink:href="#Безымянный_градиент_78"/></defs><g id="Layer_1" data-name="Layer 1"><g class="cls-2"><rect class="cls-3" x="108.17" width="2240.67" height="1260.37"/><circle class="cls-4" cx="1171.91" cy="352.44" r="172.72"/><path class="cls-5" d="M-325.33,1189.54h0a61.77,61.77,0,0,1,0-87.37L-80.08,856.91a61.79,61.79,0,0,1,87.37,0h0a61.8,61.8,0,0,1,0,87.38L-238,1189.54A61.79,61.79,0,0,1-325.33,1189.54Z" transform="translate(428.51 155.93)"/><path class="cls-6" d="M851,708.7h0a61.77,61.77,0,0,1,0,87.37L605.79,1041.33a61.79,61.79,0,0,1-87.37,0h0a61.77,61.77,0,0,1,0-87.37L763.67,708.7A61.79,61.79,0,0,1,851,708.7Z" transform="translate(428.51 155.93)"/><path class="cls-7" d="M155.47,1062.33h0a61.79,61.79,0,0,1,0-87.37L400.73,729.71a61.77,61.77,0,0,1,87.37,0h0a61.79,61.79,0,0,1,0,87.37L242.85,1062.33A61.79,61.79,0,0,1,155.47,1062.33Z" transform="translate(428.51 155.93)"/><path class="cls-8" d="M38.77,1356.42h0a61.79,61.79,0,0,1,0-87.37L284,1023.8a61.77,61.77,0,0,1,87.37,0h0a61.79,61.79,0,0,1,0,87.37L126.14,1356.42A61.77,61.77,0,0,1,38.77,1356.42Z" transform="translate(428.51 155.93)"/><path class="cls-9" d="M-410.41,1106.35h0a61.77,61.77,0,0,1,0-87.37L-64.8,668.7a61.77,61.77,0,0,1,87.37,0h0a61.77,61.77,0,0,1,0,87.37L-323,1106.35A61.77,61.77,0,0,1-410.41,1106.35Z" transform="translate(428.51 155.93)"/><path class="cls-10" d="M-82.9,958.62h0a7,7,0,0,1,0-9.91l209.6-209.6a7,7,0,0,1,9.91,0h0a7,7,0,0,1,0,9.9L-73,958.62A7,7,0,0,1-82.9,958.62Z" transform="translate(428.51 155.93)"/><path class="cls-11" d="M-34.94,721.61h0a7,7,0,0,1,0,9.9l-209.61,209.6a7,7,0,0,1-9.9,0h0a7,7,0,0,1,0-9.9l209.6-209.6A7,7,0,0,1-34.94,721.61Z" transform="translate(428.51 155.93)"/><path class="cls-12" d="M136.5,916.6h0a7,7,0,0,1,0-9.9L346.1,697.1a7,7,0,0,1,9.9,0h0a7,7,0,0,1,0,9.9L146.4,916.6A7,7,0,0,1,136.5,916.6Z" transform="translate(428.51 155.93)"/><path class="cls-13" d="M-124.91,1181.51h0a7,7,0,0,1,0-9.9L84.69,962a7,7,0,0,1,9.9,0h0a7,7,0,0,1,0,9.9L-115,1181.51A7,7,0,0,1-124.91,1181.51Z" transform="translate(428.51 155.93)"/><path class="cls-14" d="M737.62,823.14h0a7,7,0,0,1,0,9.9L528,1042.64a7,7,0,0,1-9.91,0h0a7,7,0,0,1,0-9.9l209.61-209.6A7,7,0,0,1,737.62,823.14Z" transform="translate(428.51 155.93)"/><path class="cls-15" d="M776.13,998.19h0a7,7,0,0,1,0,9.9l-209.6,209.6a7,7,0,0,1-9.9,0h0a7,7,0,0,1,0-9.9l209.61-209.6A7,7,0,0,1,776.13,998.19Z" transform="translate(428.51 155.93)"/><path class="cls-16" d="M499.55,907.16h0a7,7,0,0,1,0,9.9L290,1126.67a7,7,0,0,1-9.91,0h0a7,7,0,0,1,0-9.91l209.6-209.6A7,7,0,0,1,499.55,907.16Z" transform="translate(428.51 155.93)"/><path class="cls-17" d="M164.51,711.21h0a7,7,0,0,1,0-9.9L374.11,491.7a7,7,0,0,1,9.9,0h0a7,7,0,0,1,0,9.91l-209.6,209.6A7,7,0,0,1,164.51,711.21Z" transform="translate(428.51 155.93)"/><path class="cls-18" d="M982.69,918.83h0a7,7,0,0,1,0,9.9l-209.6,209.61a7,7,0,0,1-9.9,0h0a7,7,0,0,1,0-9.91l209.6-209.6A7,7,0,0,1,982.69,918.83Z" transform="translate(428.51 155.93)"/><path class="cls-19" d="M-65.29,852.31h0a7,7,0,0,1,0,9.9l-209.6,209.61a7,7,0,0,1-9.9,0h0a7,7,0,0,1,0-9.91l209.6-209.6A7,7,0,0,1-65.29,852.31Z" transform="translate(428.51 155.93)"/></g></g></svg>